PathFileType	4	(X/Y/Z)	E:\Qualisys_Data\Carbon_Farble_Plate\Data\Amateur_Runner\S14\T2\S14T2V26_c3d.trc
DataRate	CameraRate	NumFrames	NumMarkers	Units	OrigDataRate	OrigDataStartFrame	OrigNumFrames
200.000000	200.000000	4	39	mm	200.000000	148	296
Frame#	Time	LSHO			RSHO			LICST			RICST			LASIS			LHEEL			RASIS			LTROC			RTROC			SACR			LTH1			LSK4			LTH2			LTH3			RHM5			LSK2			LTH4			RTH1			LTOE			RTH2			RTH3			RTH4			LLEP			RLEP			LSK1			LSK3			RSK1			LHM5			RSK2			LFT1			RSK3			RSK4			LLME			RLME			RTOE			RHEEL			RFT1			RFT2			LFT2			
		X1	Y1	Z1	X2	Y2	Z2	X3	Y3	Z3	X4	Y4	Z4	X5	Y5	Z5	X6	Y6	Z6	X7	Y7	Z7	X8	Y8	Z8	X9	Y9	Z9	X10	Y10	Z10	X11	Y11	Z11	X12	Y12	Z12	X13	Y13	Z13	X14	Y14	Z14	X15	Y15	Z15	X16	Y16	Z16	X17	Y17	Z17	X18	Y18	Z18	X19	Y19	Z19	X20	Y20	Z20	X21	Y21	Z21	X22	Y22	Z22	X23	Y23	Z23	X24	Y24	Z24	X25	Y25	Z25	X26	Y26	Z26	X27	Y27	Z27	X28	Y28	Z28	X29	Y29	Z29	X30	Y30	Z30	X31	Y31	Z31	X32	Y32	Z32	X33	Y33	Z33	X34	Y34	Z34	X35	Y35	Z35	X36	Y36	Z36	X37	Y37	Z37	X38	Y38	Z38	X39	Y39	Z39	

149	0.74	349.1236267089844	1432.93359375	-535.814453125	293.8270568847656	1431.142578125	-249.6644897460938	287.63525390625	981.1423950195312	-528.4036254882812	290.8777465820312	990.1838989257812	-256.7243041992188	323.4598999023438	929.0299682617188	-504.7436828613281	-308.7026672363281	483.6932373046875	-414.3034057617188	319.7325439453125	949.9871826171876	-277.2960510253906	177.9306793212891	879.614990234375	-555.9686889648438	195.9989929199219	863.2605590820312	-217.1559600830078	150.0366363525391	985.1582641601562	-402.3268737792969	169.3052673339844	648.4376831054688	-554.7223510742188	-135.8036804199219	514.9099731445312	-504.9140319824219	97.57559967041016	673.9491577148438	-527.9557495117188	143.6222381591797	552.3925170898438	-538.5074462890625	625.7969970703125	109.3759460449219	-255.1548614501953	-40.8713264465332	536.097900390625	-526.6886596679688	70.36516571044922	579.9273681640625	-514.733642578125	397.9442749023438	695.14501953125	-220.7450408935547	-361.4261779785156	240.9446868896484	-482.1012878417969	325.9912109375	661.7423706054688	-210.0917510986328	438.6663513183594	609.4619750976562	-254.9355773925781	363.2546691894531	571.3709716796875	-236.3083190917969	66.4894790649414	514.4140014648438	-530.839111328125	417.79150390625	520.15625	-246.9647216796875	-23.70386695861816	455.2744750976562	-532.2955322265625	-122.2207565307617	435.703369140625	-515.138916015625	461.4926147460938	405.83642578125	-247.3274993896484	-379.3877868652344	322.2723083496094	-527.0792236328125	378.6510925292969	384.499755859375	-253.6640777587891	-335.5905151367188	473.7283630371094	-388.59716796875	481.3870849609375	305.1226196289062	-262.5572509765625	403.9259948730469	292.4468688964844	-268.2744750976562	-298.6497192382812	443.5633544921875	-486.6818237304688	486.83349609375	124.459342956543	-290.6343994140625	692.301025390625	167.4571228027344	-303.4873657226562	449.4519958496094	77.96994018554688	-351.6636657714844	478.5757446289062	62.12054061889648	-381.3222045898438	461.5639343261719	48.70271301269531	-329.1372375488281	-343.5774230957031	493.1973266601562	-439.1671142578125
150	0.745	369.6116943359375	1429.34814453125	-535.3103637695312	314.6777648925781	1426.738647460938	-248.5802154541016	307.155517578125	977.5758666992188	-528.4459838867188	310.7215881347656	987.598388671875	-256.7456970214844	343.5591735839844	925.9663696289062	-504.9362182617188	-279.9238586425781	491.6079711914062	-411.7149658203125	340.1721496582031	947.5420532226562	-276.9742431640625	198.6724700927734	875.06396484375	-557.0277709960938	215.4031219482422	858.9051513671875	-218.1732788085938	170.3245086669922	980.3912353515624	-402.8470458984375	193.4477844238281	643.3715209960938	-555.7830810546875	-107.3000030517578	515.2442016601562	-506.232666015625	121.3489303588867	667.0689086914062	-528.67724609375	169.2375183105469	546.9656982421875	-539.9708251953125	640.6954956054688	102.865104675293	-257.1542358398438	-12.10738849639893	533.4304809570312	-528.5076904296875	95.96576690673828	573.0543823242188	-515.853515625	419.0333557128906	692.511962890625	-219.5668792724609	-340.9276123046875	250.3807373046875	-482.8388671875	345.9995422363281	659.0869140625	-212.8504638671875	460.3092041015625	607.2328491210938	-254.43115234375	384.5516967773438	570.3170166015625	-239.0502014160156	92.3960189819336	509.6754150390625	-532.9522094726562	438.3568115234375	517.2532348632812	-248.0892639160156	2.488817930221558	451.9200744628906	-533.621337890625	-96.55190277099608	435.9421081542969	-515.3814697265625	480.3565979003906	400.943603515625	-248.1065063476562	-356.5354919433594	332.8949584960938	-527.3545532226562	396.9732666015625	380.7336730957031	-254.5379791259766	-307.6100158691406	481.2228698730469	-388.0309448242188	498.8931274414062	300.102294921875	-263.955078125	421.2908630371094	288.6414184570312	-269.3350219726562	-271.9639892578125	450.5381164550781	-486.5778503417969	501.7636108398438	119.2800903320312	-291.8206787109375	707.2654418945312	160.5471038818359	-305.0499572753906	463.5281677246094	73.62256622314453	-353.0429077148438	492.3148193359375	57.58316802978516	-382.8786926269531	475.3680419921875	44.01567077636719	-331.2452392578125	-315.4822692871094	502.0362243652344	-437.8883972167969
151	0.75	389.6868896484375	1425.32666015625	-534.6422729492188	335.74365234375	1421.841064453125	-247.3038482666016	326.6025390625	973.92724609375	-529.1327514648438	330.6120300292969	984.294189453125	-256.4195556640625	363.597900390625	922.814208984375	-505.4505615234375	-250.6904296875	498.0275268554688	-411.1420288085938	360.3953857421875	944.731201171875	-276.5059509277344	219.4007263183594	870.0304565429688	-558.0238647460938	235.0458679199219	854.6683959960938	-218.8106384277344	189.8802795410156	975.8914794921876	-403.4457092285156	217.7652893066406	637.7836303710938	-557.0386962890625	-78.93045806884766	515.1477661132812	-507.6245422363281	145.1718902587891	660.2653198242188	-529.2677612304688	194.4661254882812	541.2183227539062	-540.9845581054688	654.2797241210938	95.41896057128906	-259.5724182128906	17.05426979064941	529.9322509765625	-529.7432250976562	122.0506210327148	565.4142456054688	-516.87353515625	438.5129699707031	688.542724609375	-219.1859893798828	-319.1098327636719	259.1759948730469	-483.505126953125	366.3721313476562	656.4456176757812	-216.1476745605469	481.9351806640625	604.1871948242188	-253.9642944335938	405.6621398925781	567.1797485351562	-243.1921539306641	118.5141296386719	504.5420532226562	-535.6829833984375	458.3790588378906	514.0263671875	-248.9320220947266	28.8373851776123	448.4994812011719	-534.6826782226562	-70.30679321289062	435.3090515136719	-516.01416015625	498.7741394042969	396.1116638183594	-249.1395568847656	-332.4310913085938	341.7296752929688	-527.2820434570312	415.4577331542969	377.3915100097656	-254.9737243652344	-278.8531188964844	488.3355712890625	-387.3494262695312	515.5859375	295.2283630371094	-264.84130859375	438.0472106933594	284.7200012207031	-269.710693359375	-244.3871459960938	456.8872375488281	-486.6448059082031	515.5122680664062	114.0854721069336	-293.2509155273438	721.3914794921875	152.8017730712891	-307.3754272460938	476.4427795410156	69.24811553955078	-354.232177734375	504.4077758789062	53.01974105834961	-384.156005859375	486.0891418457031	39.67666625976562	-331.6937866210938	-285.8472900390625	509.5271911621094	-437.283447265625
152	0.755	409.8717346191406	1421.232299804688	-534.0820922851562	356.8699035644531	1416.986572265625	-246.3782958984375	345.973876953125	970.11865234375	-529.4602661132812	350.4534606933594	981.1102905273438	-255.6421051025391	383.2550048828125	919.0587158203124	-505.6671142578125	-220.8239288330078	504.0889892578125	-410.7972717285156	380.8091430664062	941.3728637695312	-276.3787841796875	239.7176055908203	864.7891235351562	-558.6441040039062	254.5609130859375	850.2824096679688	-219.7170562744141	209.9713134765625	971.0209350585938	-404.1904907226562	242.0463104248047	632.5835571289062	-558.2743530273438	-49.72723007202148	514.6907958984375	-509.0433959960938	169.3890533447266	653.23974609375	-530.2515869140625	222.2191162109375	535.2881469726562	-543.6497802734375	666.47412109375	87.98387908935547	-262.0985412597656	46.62350845336914	526.4044189453125	-531.8375854492188	148.0951080322266	557.7391357421875	-518.5543823242188	459.2108154296875	684.223876953125	-218.441162109375	-296.4938354492188	267.2945251464844	-484.2994689941406	386.8405151367188	654.3054809570312	-218.6838073730469	501.3294982910156	599.1890869140625	-254.3219604492188	425.5227661132812	563.7783813476562	-245.5811920166016	148.8079223632812	496.9217834472656	-539.1508178710938	477.3526000976562	510.6777038574219	-249.3896942138672	55.97874069213867	444.3182067871094	-536.263427734375	-43.61649703979492	434.4279479980469	-516.6016845703125	516.8632202148438	390.8226623535156	-249.8867034912109	-307.0740966796875	350.1283874511719	-527.166015625	433.4923400878906	373.0679931640625	-255.24267578125	-249.4205627441406	494.8354187011719	-386.8747863769531	532.2154541015625	289.1379699707031	-266.2409362792969	454.1064453125	280.0189819335938	-269.7686767578125	-215.6930541992188	462.7803649902344	-486.290283203125	528.1961059570312	109.5972518920898	-294.0714111328125	735.1465454101562	142.9801483154297	-310.8430480957031	487.7637634277344	67.8051986694336	-354.6729736328125	514.7244262695312	49.83332061767578	-385.3897399902344	496.0068054199219	38.83424758911133	-332.6215515136719	-255.7492828369141	516.278076171875	-437.0455322265625
